# Exported from Wings 3D 0.99.04a
mtllib asteroid1.mtl
o dodecahedron3
#105 vertices, 97 faces
v -0.35020536 -2.6782857e-3 0.92498358
v 0.32114114 -2.6782857e-3 0.92498358
v -0.55766284 -0.25868753 -0.51324170
v -0.55766284 -0.25868753 0.58546465
v -0.55766284 0.25333096 -0.51324170
v -0.55766284 0.25333096 0.58546465
v 0.52859861 -0.25868753 -0.51324170
v 0.52859861 -0.25868753 0.58546465
v 0.52859861 0.25333096 -0.51324170
v 0.52859861 0.25333096 0.58546465
v 0.86427186 0.15554413 3.6111474e-2
v 0.86427186 -0.16090070 3.6111474e-2
v -0.89333609 0.15554413 3.6111474e-2
v -0.89333609 -0.16090070 3.6111474e-2
v -0.35020536 -2.6782857e-3 -0.85276064
v 0.32114114 -2.6782857e-3 -0.85276064
v -1.4532114e-2 0.41155338 0.37563041
v -1.4532114e-2 0.41155338 -0.30340746
v -1.4532114e-2 -0.41690995 0.37563041
v -1.4532114e-2 -0.41690995 -0.30340746
v -0.23406242 9.0587193e-2 0.94125449
v 0.20499819 9.0587193e-2 0.94125449
v 0.34067538 0.25801724 0.71920911
v -1.4532114e-2 0.36149470 0.58197751
v -0.36973961 0.25801724 0.71920911
v 0.20499819 -9.5943764e-2 0.94125449
v -0.23406242 -9.5943764e-2 0.94125449
v -0.36973961 -0.26337381 0.71920911
v -1.4532114e-2 -0.36685127 0.58197751
v 0.34067538 -0.26337381 0.71920911
v 0.52515098 -2.6782857e-3 0.81756601
v 0.66082817 -0.17010833 0.59552062
v 0.88035847 -0.10615575 0.23624365
v 0.88035847 0.10079917 0.23624365
v 0.66082817 0.16475176 0.59552062
v 0.53854069 -0.32101505 -0.32316550
v 0.75807099 -0.25706246 3.6111474e-2
v 0.53854069 -0.32101505 0.39538845
v 0.18333319 -0.42449251 0.25815686
v 0.18333319 -0.42449251 -0.18593391
v 0.75807099 0.25170589 3.6111474e-2
v 0.53854069 0.31565848 -0.32316550
v 0.18333319 0.41913594 -0.18593391
v 0.18333319 0.41913594 0.25815686
v 0.53854069 0.31565848 0.39538845
v -0.36973961 -0.26337381 -0.64698616
v -0.23406242 -9.5943764e-2 -0.86903154
v 0.20499819 -9.5943764e-2 -0.86903154
v 0.34067538 -0.26337381 -0.64698616
v -1.4532114e-2 -0.36685127 -0.50975457
v -0.68989240 -0.17010833 -0.52329768
v -0.90942270 -0.10615575 -0.16402070
v -0.90942270 0.10079917 -0.16402070
v -0.68989240 0.16475176 -0.52329768
v -0.55421521 -2.6782857e-3 -0.74534306
v -0.78713522 -0.25706246 3.6111474e-2
v -0.56760491 -0.32101505 -0.32316550
v -0.21239742 -0.42449251 -0.18593391
v -0.21239742 -0.42449251 0.25815686
v -0.56760491 -0.32101505 0.39538845
v -0.68989240 -0.17010833 0.59552062
v -0.55421521 -2.6782857e-3 0.81756601
v -0.68989240 0.16475176 0.59552062
v -0.90942270 0.10079917 0.23624365
v -0.90942270 -0.10615575 0.23624365
v 0.88035847 -0.10615575 -0.16402070
v 0.66082817 -0.17010833 -0.52329768
v 0.52515098 -2.6782857e-3 -0.74534306
v 0.66082817 0.16475176 -0.52329768
v 0.88035847 0.10079917 -0.16402070
v -0.23406242 9.0587193e-2 -0.86903154
v -0.36973961 0.25801724 -0.64698616
v -1.4532114e-2 0.36149470 -0.50975457
v 0.34067538 0.25801724 -0.64698616
v 0.20499819 9.0587193e-2 -0.86903154
v -0.56760491 0.31565848 -0.32316550
v -0.78713522 0.25170589 3.6111474e-2
v -0.56760491 0.31565848 0.39538845
v -0.21239742 0.41913594 0.25815686
v -0.21239742 0.41913594 -0.18593391
v 0.58218842 -0.38907247 -0.20244844
v 0.72795655 -0.34660795 3.6111474e-2
v 0.58218842 -0.38907247 0.27467139
v 0.34633065 -0.45778150 0.18354961
v 0.34633065 -0.45778150 -0.11132666
v 0.95098200 -7.1387319e-2 -0.32888556
v 0.80521388 -0.11385184 -0.56744547
v 0.71512422 -2.6782857e-3 -0.71488360
v 0.80521388 0.10849527 -0.56744547
v 0.95098200 6.6030748e-2 -0.32888556
v -0.16030024 0.16741742 -0.94046418
v -0.25038989 0.27859097 -0.79302604
v -1.4532114e-2 0.34730000 -0.70190426
v 0.22132566 0.27859097 -0.79302604
v 0.13123601 0.16741742 -0.94046418
v -0.80413184 -0.10974528 0.65052730
v -0.71736994 -2.6782857e-3 0.79251933
v -0.80413184 0.10438871 0.65052730
v -0.94901540 6.2181881e-2 0.41341505
v -0.94901540 -6.7538453e-2 0.41341505
v -0.59265767 0.38451557 -0.19611328
v -0.73455480 0.34317873 3.6111474e-2
v -0.59265767 0.38451557 0.26833623
v -0.34642598 0.45624668 0.17320657
v -0.34642598 0.45624668 -0.10098362
vn 0.0000000e+0 -0.17186222 0.98512100
vn -0.50707814 0.51028086 0.69461155
vn 0.0000000e+0 0.17186222 0.98512100
vn -0.50707814 -0.51028086 0.69461155
vn -0.36452553 -0.62275286 0.69231496
vn -0.36452553 0.62275286 0.69231496
vn 0.0000000e+0 -0.17186222 0.98512100
vn 0.50707814 0.51028086 0.69461155
vn 0.0000000e+0 0.17186222 0.98512100
vn 0.50707814 -0.51028086 0.69461155
vn 0.36452553 -0.62275286 0.69231496
vn 0.36452553 0.62275286 0.69231496
vn -0.50707814 -0.51028086 -0.69461155
vn -0.18857627 -0.95437648 -0.23152650
vn -0.53766832 -0.82328233 -0.18198621
vn -0.36452553 -0.62275286 -0.69231496
vn -0.64664854 -0.71415749 -0.26800140
vn -0.15119178 -0.93692669 -0.31513399
vn -0.50707814 -0.51028086 0.69461155
vn -0.18857627 -0.95437648 0.23152650
vn -0.15119178 -0.93692669 0.31513399
vn -0.64664854 -0.71415749 0.26800140
vn -0.36452553 -0.62275286 0.69231496
vn -0.53766832 -0.82328233 0.18198621
vn -0.53766832 0.82328233 -0.18198621
vn -0.36452553 0.62275286 -0.69231496
vn -0.50707814 0.51028086 -0.69461155
vn -0.18857627 0.95437648 -0.23152650
vn -0.64664854 0.71415749 -0.26800140
vn -0.15119178 0.93692669 -0.31513399
vn -0.18857627 0.95437648 0.23152650
vn -0.50707814 0.51028086 0.69461155
vn -0.36452553 0.62275286 0.69231496
vn -0.53766832 0.82328233 0.18198621
vn -0.64664854 0.71415749 0.26800140
vn -0.15119178 0.93692669 0.31513399
vn 0.64664854 -0.71415749 -0.26800140
vn 0.15119178 -0.93692669 -0.31513399
vn 0.50707814 -0.51028086 -0.69461155
vn 0.18857627 -0.95437648 -0.23152650
vn 0.53766832 -0.82328233 -0.18198621
vn 0.36452553 -0.62275286 -0.69231496
vn 0.18857627 -0.95437648 0.23152650
vn 0.50707814 -0.51028086 0.69461155
vn 0.36452553 -0.62275286 0.69231496
vn 0.53766832 -0.82328233 0.18198621
vn 0.64664854 -0.71415749 0.26800140
vn 0.15119178 -0.93692669 0.31513399
vn 0.64664854 0.71415749 -0.26800140
vn 0.15119178 0.93692669 -0.31513399
vn 0.36452553 0.62275286 -0.69231496
vn 0.53766832 0.82328233 -0.18198621
vn 0.18857627 0.95437648 -0.23152650
vn 0.50707814 0.51028086 -0.69461155
vn 0.50707814 0.51028086 0.69461155
vn 0.18857627 0.95437648 0.23152650
vn 0.53766832 0.82328233 0.18198621
vn 0.36452553 0.62275286 0.69231496
vn 0.15119178 0.93692669 0.31513399
vn 0.64664854 0.71415749 0.26800140
vn 0.99678510 0.0000000e+0 -8.0121512e-2
vn 0.53766832 0.82328233 0.18198621
vn 0.64664854 0.71415749 -0.26800140
vn 0.64664854 0.71415749 0.26800140
vn 0.53766832 0.82328233 -0.18198621
vn 0.99678510 0.0000000e+0 8.0121512e-2
vn 0.53766832 -0.82328233 0.18198621
vn 0.99678510 0.0000000e+0 -8.0121512e-2
vn 0.64664854 -0.71415749 -0.26800140
vn 0.64664854 -0.71415749 0.26800140
vn 0.53766832 -0.82328233 -0.18198621
vn 0.99678510 0.0000000e+0 8.0121512e-2
vn -0.99678510 0.0000000e+0 8.0121512e-2
vn -0.53766832 0.82328233 -0.18198621
vn -0.53766832 0.82328233 0.18198621
vn -0.99678510 0.0000000e+0 -8.0121512e-2
vn -0.64664854 0.71415749 -0.26800140
vn -0.64664854 0.71415749 0.26800140
vn -0.53766832 -0.82328233 -0.18198621
vn -0.99678510 0.0000000e+0 8.0121512e-2
vn -0.64664854 -0.71415749 -0.26800140
vn -0.64664854 -0.71415749 0.26800140
vn -0.99678510 0.0000000e+0 -8.0121512e-2
vn -0.53766832 -0.82328233 0.18198621
vn -0.50707814 -0.51028086 -0.69461155
vn 0.0000000e+0 0.17186222 -0.98512100
vn -0.36452553 0.62275286 -0.69231496
vn -0.36452553 -0.62275286 -0.69231496
vn -0.50707814 0.51028086 -0.69461155
vn 0.0000000e+0 -0.17186222 -0.98512100
vn 0.0000000e+0 0.17186222 -0.98512100
vn 0.50707814 -0.51028086 -0.69461155
vn 0.36452553 -0.62275286 -0.69231496
vn 0.36452553 0.62275286 -0.69231496
vn 0.50707814 0.51028086 -0.69461155
vn 0.0000000e+0 -0.17186222 -0.98512100
vn 0.18857627 0.95437648 0.23152650
vn -0.18857627 0.95437648 0.23152650
vn -3.8293713e-2 0.99926653 0.0000000e+0
vn 0.15119178 0.93692669 0.31513399
vn -0.15119178 0.93692669 0.31513399
vn 3.8293713e-2 0.99926653 0.0000000e+0
vn 0.15119178 0.93692669 -0.31513399
vn -3.8293713e-2 0.99926653 0.0000000e+0
vn -0.18857627 0.95437648 -0.23152650
vn 0.18857627 0.95437648 -0.23152650
vn 3.8293713e-2 0.99926653 0.0000000e+0
vn -0.15119178 0.93692669 -0.31513399
vn -0.18857627 -0.95437648 0.23152650
vn 0.18857627 -0.95437648 0.23152650
vn 0.15119178 -0.93692669 0.31513399
vn -3.8293713e-2 -0.99926653 0.0000000e+0
vn 3.8293713e-2 -0.99926653 0.0000000e+0
vn -0.15119178 -0.93692669 0.31513399
vn -3.8293713e-2 -0.99926653 0.0000000e+0
vn 0.15119178 -0.93692669 -0.31513399
vn 0.18857627 -0.95437648 -0.23152650
vn -0.18857627 -0.95437648 -0.23152650
vn -0.15119178 -0.93692669 -0.31513399
vn 3.8293713e-2 -0.99926653 0.0000000e+0
vn 1.2565782e-16 0.79845080 0.60206006
vn 0.0000000e+0 -0.17186222 0.98512100
vn -0.50707814 0.51028086 0.69461155
vn 1.2565782e-16 0.79845080 0.60206006
vn 0.0000000e+0 -0.17186222 0.98512100
vn 0.50707814 0.51028086 0.69461155
vn 1.2565782e-16 0.79845080 0.60206006
vn 0.50707814 0.51028086 0.69461155
vn 0.18857627 0.95437648 0.23152650
vn 1.2565782e-16 0.79845080 0.60206006
vn 0.18857627 0.95437648 0.23152650
vn -0.18857627 0.95437648 0.23152650
vn 1.2565782e-16 0.79845080 0.60206006
vn -0.18857627 0.95437648 0.23152650
vn -0.50707814 0.51028086 0.69461155
vn 0.0000000e+0 -0.79845080 0.60206006
vn 0.0000000e+0 0.17186222 0.98512100
vn 0.50707814 -0.51028086 0.69461155
vn 0.0000000e+0 -0.79845080 0.60206006
vn 0.0000000e+0 0.17186222 0.98512100
vn -0.50707814 -0.51028086 0.69461155
vn 0.0000000e+0 -0.79845080 0.60206006
vn -0.50707814 -0.51028086 0.69461155
vn -0.18857627 -0.95437648 0.23152650
vn 0.0000000e+0 -0.79845080 0.60206006
vn -0.18857627 -0.95437648 0.23152650
vn 0.18857627 -0.95437648 0.23152650
vn 0.0000000e+0 -0.79845080 0.60206006
vn 0.18857627 -0.95437648 0.23152650
vn 0.50707814 -0.51028086 0.69461155
vn 0.85331126 0.0000000e+0 0.52140185
vn 0.36452553 -0.62275286 0.69231496
vn 0.36452553 0.62275286 0.69231496
vn 0.85331126 0.0000000e+0 0.52140185
vn 0.36452553 -0.62275286 0.69231496
vn 0.53766832 -0.82328233 0.18198621
vn 0.85331126 0.0000000e+0 0.52140185
vn 0.53766832 -0.82328233 0.18198621
vn 0.99678510 0.0000000e+0 -8.0121512e-2
vn 0.85331126 0.0000000e+0 0.52140185
vn 0.99678510 0.0000000e+0 -8.0121512e-2
vn 0.53766832 0.82328233 0.18198621
vn 0.85331126 0.0000000e+0 0.52140185
vn 0.53766832 0.82328233 0.18198621
vn 0.36452553 0.62275286 0.69231496
vn 0.64664854 -0.71415749 -0.26800140
vn 0.15119178 -0.93692669 -0.31513399
vn 0.84010221 -0.28252914 -0.46303948
vn 5.5532844e-2 -0.86103251 -0.50550877
vn 0.64664854 -0.71415749 -0.26800140
vn 0.64664854 -0.71415749 0.26800140
vn 0.84010221 -0.28252914 -0.46303948
vn 0.84010221 -0.28252914 0.46303948
vn 0.64664854 -0.71415749 0.26800140
vn 0.15119178 -0.93692669 0.31513399
vn 0.84010221 -0.28252914 0.46303948
vn 5.5532844e-2 -0.86103251 0.50550877
vn 0.15119178 -0.93692669 0.31513399
vn -3.8293713e-2 -0.99926653 0.0000000e+0
vn 5.5532844e-2 -0.86103251 0.50550877
vn -0.20009970 -0.97977554 0.0000000e+0
vn -3.8293713e-2 -0.99926653 0.0000000e+0
vn 0.15119178 -0.93692669 -0.31513399
vn -0.20009970 -0.97977554 0.0000000e+0
vn 5.5532844e-2 -0.86103251 -0.50550877
vn 0.27968929 0.96009057 0.0000000e+0
vn 0.64664854 0.71415749 -0.26800140
vn 0.64664854 0.71415749 0.26800140
vn 0.27968929 0.96009057 0.0000000e+0
vn 0.64664854 0.71415749 -0.26800140
vn 0.15119178 0.93692669 -0.31513399
vn 0.27968929 0.96009057 0.0000000e+0
vn 0.15119178 0.93692669 -0.31513399
vn -3.8293713e-2 0.99926653 0.0000000e+0
vn 0.27968929 0.96009057 0.0000000e+0
vn -3.8293713e-2 0.99926653 0.0000000e+0
vn 0.15119178 0.93692669 0.31513399
vn 0.27968929 0.96009057 0.0000000e+0
vn 0.15119178 0.93692669 0.31513399
vn 0.64664854 0.71415749 0.26800140
vn 0.0000000e+0 -0.79845080 -0.60206006
vn -0.50707814 -0.51028086 -0.69461155
vn -0.18857627 -0.95437648 -0.23152650
vn 0.0000000e+0 -0.79845080 -0.60206006
vn -0.50707814 -0.51028086 -0.69461155
vn 0.0000000e+0 0.17186222 -0.98512100
vn 0.0000000e+0 -0.79845080 -0.60206006
vn 0.0000000e+0 0.17186222 -0.98512100
vn 0.50707814 -0.51028086 -0.69461155
vn 0.0000000e+0 -0.79845080 -0.60206006
vn 0.50707814 -0.51028086 -0.69461155
vn 0.18857627 -0.95437648 -0.23152650
vn 0.0000000e+0 -0.79845080 -0.60206006
vn 0.18857627 -0.95437648 -0.23152650
vn -0.18857627 -0.95437648 -0.23152650
vn -0.85331126 -3.5215992e-16 -0.52140185
vn -0.53766832 -0.82328233 -0.18198621
vn -0.36452553 -0.62275286 -0.69231496
vn -0.85331126 -3.5215992e-16 -0.52140185
vn -0.53766832 -0.82328233 -0.18198621
vn -0.99678510 0.0000000e+0 8.0121512e-2
vn -0.85331126 -3.5215992e-16 -0.52140185
vn -0.99678510 0.0000000e+0 8.0121512e-2
vn -0.53766832 0.82328233 -0.18198621
vn -0.85331126 -3.5215992e-16 -0.52140185
vn -0.53766832 0.82328233 -0.18198621
vn -0.36452553 0.62275286 -0.69231496
vn -0.85331126 -3.5215992e-16 -0.52140185
vn -0.36452553 0.62275286 -0.69231496
vn -0.36452553 -0.62275286 -0.69231496
vn -0.27968929 -0.96009057 0.0000000e+0
vn -0.64664854 -0.71415749 -0.26800140
vn -0.64664854 -0.71415749 0.26800140
vn -0.27968929 -0.96009057 0.0000000e+0
vn -0.64664854 -0.71415749 -0.26800140
vn -0.15119178 -0.93692669 -0.31513399
vn -0.27968929 -0.96009057 0.0000000e+0
vn -0.15119178 -0.93692669 -0.31513399
vn 3.8293713e-2 -0.99926653 0.0000000e+0
vn -0.27968929 -0.96009057 0.0000000e+0
vn 3.8293713e-2 -0.99926653 0.0000000e+0
vn -0.15119178 -0.93692669 0.31513399
vn -0.27968929 -0.96009057 0.0000000e+0
vn -0.15119178 -0.93692669 0.31513399
vn -0.64664854 -0.71415749 0.26800140
vn -0.36452553 -0.62275286 0.69231496
vn -0.53766832 -0.82328233 0.18198621
vn -9.7721052e-2 -0.76501304 0.63655765
vn -0.42651021 -0.89886966 0.10061005
vn -0.36452553 -0.62275286 0.69231496
vn -0.36452553 0.62275286 0.69231496
vn -9.7721052e-2 -0.76501304 0.63655765
vn -9.7721052e-2 0.76501304 0.63655765
vn -0.36452553 0.62275286 0.69231496
vn -0.53766832 0.82328233 0.18198621
vn -9.7721052e-2 0.76501304 0.63655765
vn -0.42651021 0.89886966 0.10061005
vn -0.53766832 0.82328233 0.18198621
vn -0.99678510 0.0000000e+0 -8.0121512e-2
vn -0.42651021 0.89886966 0.10061005
vn -0.97592826 0.0000000e+0 -0.21809180
vn -0.99678510 0.0000000e+0 -8.0121512e-2
vn -0.53766832 -0.82328233 0.18198621
vn -0.97592826 0.0000000e+0 -0.21809180
vn -0.42651021 -0.89886966 0.10061005
vn 0.53766832 -0.82328233 -0.18198621
vn 0.99678510 0.0000000e+0 8.0121512e-2
vn 0.35003258 -0.93553993 -4.7352215e-2
vn 0.91921132 0.0000000e+0 0.39376459
vn 0.53766832 -0.82328233 -0.18198621
vn 0.36452553 -0.62275286 -0.69231496
vn 0.35003258 -0.93553993 -4.7352215e-2
vn 0.10229337 -0.76321516 -0.63799583
vn 0.36452553 -0.62275286 -0.69231496
vn 0.36452553 0.62275286 -0.69231496
vn 0.10229337 -0.76321516 -0.63799583
vn 0.10229337 0.76321516 -0.63799583
vn 0.36452553 0.62275286 -0.69231496
vn 0.53766832 0.82328233 -0.18198621
vn 0.10229337 0.76321516 -0.63799583
vn 0.35003258 0.93553993 -4.7352215e-2
vn 0.53766832 0.82328233 -0.18198621
vn 0.99678510 0.0000000e+0 8.0121512e-2
vn 0.35003258 0.93553993 -4.7352215e-2
vn 0.91921132 0.0000000e+0 0.39376459
vn -0.50707814 0.51028086 -0.69461155
vn 0.0000000e+0 -0.17186222 -0.98512100
vn -0.77406135 0.17836024 -0.60746741
vn 0.0000000e+0 -0.68091308 -0.73236423
vn -0.50707814 0.51028086 -0.69461155
vn -0.18857627 0.95437648 -0.23152650
vn -0.77406135 0.17836024 -0.60746741
vn -0.25350096 0.96470640 -7.1265866e-2
vn -0.18857627 0.95437648 -0.23152650
vn 0.18857627 0.95437648 -0.23152650
vn -0.25350096 0.96470640 -7.1265866e-2
vn 0.25350096 0.96470640 -7.1265866e-2
vn 0.18857627 0.95437648 -0.23152650
vn 0.50707814 0.51028086 -0.69461155
vn 0.25350096 0.96470640 -7.1265866e-2
vn 0.77406135 0.17836024 -0.60746741
vn 0.50707814 0.51028086 -0.69461155
vn 0.0000000e+0 -0.17186222 -0.98512100
vn 0.77406135 0.17836024 -0.60746741
vn 0.0000000e+0 -0.68091308 -0.73236423
vn -0.64664854 0.71415749 -0.26800140
vn -0.15119178 0.93692669 -0.31513399
vn -0.79324929 0.45597555 -0.40353669
vn -6.6366467e-2 0.87170556 -0.48551510
vn -0.64664854 0.71415749 -0.26800140
vn -0.64664854 0.71415749 0.26800140
vn -0.79324929 0.45597555 -0.40353669
vn -0.79324929 0.45597555 0.40353669
vn -0.64664854 0.71415749 0.26800140
vn -0.15119178 0.93692669 0.31513399
vn -0.79324929 0.45597555 0.40353669
vn -6.6366467e-2 0.87170556 0.48551510
vn -0.15119178 0.93692669 0.31513399
vn 3.8293713e-2 0.99926653 0.0000000e+0
vn -6.6366467e-2 0.87170556 0.48551510
vn 0.26684666 0.96373900 0.0000000e+0
vn 3.8293713e-2 0.99926653 0.0000000e+0
vn -0.15119178 0.93692669 -0.31513399
vn 0.26684666 0.96373900 0.0000000e+0
vn -6.6366467e-2 0.87170556 -0.48551510
vn 0.27968929 -0.96009057 5.2950465e-17
vn 0.84010221 -0.28252914 -0.46303948
vn 5.5532844e-2 -0.86103251 -0.50550877
vn 0.27968929 -0.96009057 5.2950465e-17
vn 0.84010221 -0.28252914 -0.46303948
vn 0.84010221 -0.28252914 0.46303948
vn 0.27968929 -0.96009057 5.2950465e-17
vn 0.84010221 -0.28252914 0.46303948
vn 5.5532844e-2 -0.86103251 0.50550877
vn 0.27968929 -0.96009057 5.2950465e-17
vn 5.5532844e-2 -0.86103251 0.50550877
vn -0.20009970 -0.97977554 0.0000000e+0
vn 0.27968929 -0.96009057 5.2950465e-17
vn -0.20009970 -0.97977554 0.0000000e+0
vn 5.5532844e-2 -0.86103251 -0.50550877
vn 0.85331126 0.0000000e+0 -0.52140185
vn 0.35003258 -0.93553993 -4.7352215e-2
vn 0.91921132 0.0000000e+0 0.39376459
vn 0.85331126 0.0000000e+0 -0.52140185
vn 0.35003258 -0.93553993 -4.7352215e-2
vn 0.10229337 -0.76321516 -0.63799583
vn 0.85331126 0.0000000e+0 -0.52140185
vn 0.10229337 -0.76321516 -0.63799583
vn 0.10229337 0.76321516 -0.63799583
vn 0.85331126 0.0000000e+0 -0.52140185
vn 0.10229337 0.76321516 -0.63799583
vn 0.35003258 0.93553993 -4.7352215e-2
vn 0.85331126 0.0000000e+0 -0.52140185
vn 0.35003258 0.93553993 -4.7352215e-2
vn 0.91921132 0.0000000e+0 0.39376459
vn 0.0000000e+0 0.79845080 -0.60206006
vn -0.77406135 0.17836024 -0.60746741
vn 0.0000000e+0 -0.68091308 -0.73236423
vn 0.0000000e+0 0.79845080 -0.60206006
vn -0.77406135 0.17836024 -0.60746741
vn -0.25350096 0.96470640 -7.1265866e-2
vn 0.0000000e+0 0.79845080 -0.60206006
vn -0.25350096 0.96470640 -7.1265866e-2
vn 0.25350096 0.96470640 -7.1265866e-2
vn 0.0000000e+0 0.79845080 -0.60206006
vn 0.25350096 0.96470640 -7.1265866e-2
vn 0.77406135 0.17836024 -0.60746741
vn 0.0000000e+0 0.79845080 -0.60206006
vn 0.77406135 0.17836024 -0.60746741
vn 0.0000000e+0 -0.68091308 -0.73236423
vn -0.85331126 4.2316771e-16 0.52140185
vn -9.7721052e-2 -0.76501304 0.63655765
vn -0.42651021 -0.89886966 0.10061005
vn -0.85331126 4.2316771e-16 0.52140185
vn -9.7721052e-2 -0.76501304 0.63655765
vn -9.7721052e-2 0.76501304 0.63655765
vn -0.85331126 4.2316771e-16 0.52140185
vn -9.7721052e-2 0.76501304 0.63655765
vn -0.42651021 0.89886966 0.10061005
vn -0.85331126 4.2316771e-16 0.52140185
vn -0.42651021 0.89886966 0.10061005
vn -0.97592826 0.0000000e+0 -0.21809180
vn -0.85331126 4.2316771e-16 0.52140185
vn -0.97592826 0.0000000e+0 -0.21809180
vn -0.42651021 -0.89886966 0.10061005
vn -0.27968929 0.96009057 5.3773118e-17
vn -0.79324929 0.45597555 -0.40353669
vn -6.6366467e-2 0.87170556 -0.48551510
vn -0.27968929 0.96009057 5.3773118e-17
vn -0.79324929 0.45597555 -0.40353669
vn -0.79324929 0.45597555 0.40353669
vn -0.27968929 0.96009057 5.3773118e-17
vn -0.79324929 0.45597555 0.40353669
vn -6.6366467e-2 0.87170556 0.48551510
vn -0.27968929 0.96009057 5.3773118e-17
vn -6.6366467e-2 0.87170556 0.48551510
vn 0.26684666 0.96373900 0.0000000e+0
vn -0.27968929 0.96009057 5.3773118e-17
vn 0.26684666 0.96373900 0.0000000e+0
vn -6.6366467e-2 0.87170556 -0.48551510
g dodecahedron3_Asteroid1
usemtl Asteroid1
f 1//2 21//123 25//135 6//32
f 1//3 27//140 26//137 2//9
f 1//5 62//250 61//246 4//23
f 2//7 22//125 21//122 1//1
f 2//10 26//138 30//150 8//44
f 2//12 31//153 35//165 10//58
f 3//14 46//203 50//215 20//118
f 3//16 51//218 55//230 15//88
f 3//17 57//235 56//232 14//81
f 4//19 28//143 27//141 1//4
f 4//21 60//244 59//242 19//114
f 4//24 61//247 65//263 14//84
f 5//25 54//226 53//224 13//74
f 5//27 72//290 71//286 15//89
f 5//30 76//307 80//323 18//108
f 6//31 25//134 24//132 17//98
f 6//33 63//254 62//251 1//6
f 6//35 78//314 77//311 13//78
f 7//38 36//167 40//183 20//116
f 7//39 49//211 48//209 16//92
f 7//41 67//270 66//266 12//71
f 8//43 30//149 29//147 19//110
f 8//45 32//155 31//152 2//11
f 8//47 38//174 37//171 12//70
f 9//49 42//190 41//187 11//63
f 9//51 69//278 68//275 16//94
f 9//53 74//298 73//295 18//106
f 10//55 23//128 22//126 2//8
f 10//57 35//164 34//162 11//62
f 10//59 45//199 44//197 17//100
f 11//61 34//161 33//159 12//68
f 11//64 41//188 45//200 10//60
f 11//65 70//282 69//279 9//52
f 12//67 33//158 32//156 8//46
f 12//69 37//170 36//166 7//37
f 12//72 66//267 70//283 11//66
f 13//73 53//223 52//221 14//80
f 13//75 64//258 63//255 6//34
f 13//77 77//310 76//306 5//29
f 14//79 52//220 51//217 3//15
f 14//82 56//233 60//245 4//22
f 14//83 65//262 64//259 13//76
f 15//85 47//205 46//202 3//13
f 15//87 55//229 54//227 5//26
f 15//90 71//287 75//303 16//96
f 16//91 48//208 47//206 15//86
f 16//93 68//274 67//271 7//42
f 16//95 75//302 74//299 9//54
f 17//97 24//131 23//129 10//56
f 17//99 44//196 43//194 18//104
f 17//101 79//318 78//315 6//36
f 18//103 43//193 42//191 9//50
f 18//105 73//294 72//291 5//28
f 18//107 80//322 79//319 17//102
f 19//109 29//146 28//144 4//20
f 19//111 39//178 38//175 8//48
f 19//113 59//241 58//239 20//120
f 20//115 40//182 39//179 19//112
f 20//117 50//214 49//212 7//40
f 20//119 58//238 57//236 3//18
f 22//124 23//127 24//130 25//133 21//121
f 27//139 28//142 29//145 30//148 26//136
f 32//154 33//157 34//160 35//163 31//151
f 36//169 81//328 85//340 40//185
f 37//172 82//330 81//327 36//168
f 38//176 83//333 82//331 37//173
f 39//180 84//336 83//334 38//177
f 40//184 85//339 84//337 39//181
f 42//189 43//192 44//195 45//198 41//186
f 47//204 48//207 49//210 50//213 46//201
f 52//219 53//222 54//225 55//228 51//216
f 57//234 58//237 59//240 60//243 56//231
f 61//249 96//373 100//385 65//265
f 62//252 97//375 96//372 61//248
f 63//256 98//378 97//376 62//253
f 64//260 99//381 98//379 63//257
f 65//264 100//384 99//382 64//261
f 66//269 86//343 90//355 70//285
f 67//272 87//345 86//342 66//268
f 68//276 88//348 87//346 67//273
f 69//280 89//351 88//349 68//277
f 70//284 90//354 89//352 69//281
f 71//289 91//358 95//370 75//305
f 72//292 92//360 91//357 71//288
f 73//296 93//363 92//361 72//293
f 74//300 94//366 93//364 73//297
f 75//304 95//369 94//367 74//301
f 76//309 101//388 105//400 80//325
f 77//312 102//390 101//387 76//308
f 78//316 103//393 102//391 77//313
f 79//320 104//396 103//394 78//317
f 80//324 105//399 104//397 79//321
f 82//329 83//332 84//335 85//338 81//326
f 87//344 88//347 89//350 90//353 86//341
f 92//359 93//362 94//365 95//368 91//356
f 97//374 98//377 99//380 100//383 96//371
f 102//389 103//392 104//395 105//398 101//386
